<mxfile host="app.diagrams.net" modified="2022-08-19T18:50:06.529Z" agent="5.0 (Windows NT 10.0; Win64; x64) AppleWebKit/537.36 (KHTML, like Gecko) Chrome/104.0.0.0 Safari/537.36" etag="zK7WKyXiw_WpI1BUcnpJ" version="20.2.5" type="github">
  <diagram name="DB" id="efa7a0a1-bf9b-a30e-e6df-94a7791c09e9">
    <mxGraphModel dx="1240" dy="697" grid="1" gridSize="10" guides="1" tooltips="1" connect="1" arrows="1" fold="1" page="1" pageScale="1" pageWidth="826" pageHeight="1169" background="none" math="0" shadow="0">
      <root>
        <mxCell id="0" />
        <mxCell id="1" parent="0" />
        <mxCell id="k99aoyYJCD8kDP9gguMM-137" value="" style="edgeStyle=orthogonalEdgeStyle;rounded=0;orthogonalLoop=1;jettySize=auto;html=1;endArrow=ERone;endFill=0;startArrow=ERmany;startFill=0;" edge="1" parent="1" source="k99aoyYJCD8kDP9gguMM-140" target="k99aoyYJCD8kDP9gguMM-285">
          <mxGeometry relative="1" as="geometry">
            <mxPoint x="170" y="221.0000000000001" as="sourcePoint" />
            <mxPoint x="140" y="320" as="targetPoint" />
          </mxGeometry>
        </mxCell>
        <mxCell id="k99aoyYJCD8kDP9gguMM-140" value="Student" style="shape=table;startSize=30;container=1;collapsible=0;childLayout=tableLayout;fontStyle=5;align=center;fillColor=#D4E1F5;strokeColor=#003366;fontColor=#003366;verticalAlign=top;swimlaneLine=1;sketch=0;perimeterSpacing=1;" vertex="1" parent="1">
          <mxGeometry x="40" y="40" width="200" height="246.16000000000008" as="geometry" />
        </mxCell>
        <mxCell id="k99aoyYJCD8kDP9gguMM-141" value="" style="shape=tableRow;horizontal=0;startSize=0;swimlaneHead=0;swimlaneBody=0;top=0;left=0;bottom=0;right=0;collapsible=0;dropTarget=0;fillColor=none;points=[[0,0.5],[1,0.5]];portConstraint=eastwest;" vertex="1" parent="k99aoyYJCD8kDP9gguMM-140">
          <mxGeometry y="30" width="200" height="18" as="geometry" />
        </mxCell>
        <mxCell id="k99aoyYJCD8kDP9gguMM-143" value="PK" style="shape=partialRectangle;html=1;whiteSpace=wrap;connectable=0;fillColor=#D4E1F5;top=1;left=1;bottom=1;right=1;overflow=hidden;strokeColor=#003366;strokeWidth=1;align=left;fontColor=#003366;spacingLeft=5;fontSize=10;spacing=0;allowArrows=1;expand=1;resizeHeight=0;resizeWidth=0;" vertex="1" parent="k99aoyYJCD8kDP9gguMM-141">
          <mxGeometry width="40" height="18" as="geometry">
            <mxRectangle width="40" height="18" as="alternateBounds" />
          </mxGeometry>
        </mxCell>
        <mxCell id="k99aoyYJCD8kDP9gguMM-144" value="id" style="shape=partialRectangle;html=1;whiteSpace=wrap;connectable=0;fillColor=#D4E1F5;top=1;left=1;bottom=1;right=1;overflow=hidden;strokeColor=#003366;strokeWidth=1;align=left;fontColor=#003366;spacingLeft=5;fontSize=10;spacing=0;allowArrows=1;expand=1;resizeHeight=0;resizeWidth=0;" vertex="1" parent="k99aoyYJCD8kDP9gguMM-141">
          <mxGeometry x="40" width="100" height="18" as="geometry">
            <mxRectangle width="100" height="18" as="alternateBounds" />
          </mxGeometry>
        </mxCell>
        <mxCell id="k99aoyYJCD8kDP9gguMM-142" value="number" style="shape=partialRectangle;html=1;whiteSpace=wrap;connectable=0;fillColor=#D4E1F5;top=1;left=1;bottom=1;right=1;overflow=hidden;strokeColor=#003366;strokeWidth=1;align=left;fontColor=#003366;spacingLeft=5;fontSize=10;spacing=0;allowArrows=1;expand=1;resizeHeight=0;resizeWidth=0;" vertex="1" parent="k99aoyYJCD8kDP9gguMM-141">
          <mxGeometry x="140" width="60" height="18" as="geometry">
            <mxRectangle width="60" height="18" as="alternateBounds" />
          </mxGeometry>
        </mxCell>
        <mxCell id="k99aoyYJCD8kDP9gguMM-145" value="" style="shape=tableRow;horizontal=0;startSize=0;swimlaneHead=0;swimlaneBody=0;top=0;left=0;bottom=0;right=0;collapsible=0;dropTarget=0;fillColor=none;points=[[0,0.5],[1,0.5]];portConstraint=eastwest;" vertex="1" parent="k99aoyYJCD8kDP9gguMM-140">
          <mxGeometry y="48" width="200" height="18" as="geometry" />
        </mxCell>
        <mxCell id="k99aoyYJCD8kDP9gguMM-147" value="FK" style="shape=partialRectangle;html=1;whiteSpace=wrap;connectable=0;fillColor=#D4E1F5;top=1;left=1;bottom=1;right=1;overflow=hidden;strokeColor=#003366;strokeWidth=1;align=left;fontColor=#003366;spacingLeft=5;fontSize=10;spacing=0;" vertex="1" parent="k99aoyYJCD8kDP9gguMM-145">
          <mxGeometry width="40" height="18" as="geometry">
            <mxRectangle width="40" height="18" as="alternateBounds" />
          </mxGeometry>
        </mxCell>
        <mxCell id="k99aoyYJCD8kDP9gguMM-148" value="idClassroom" style="shape=partialRectangle;html=1;whiteSpace=wrap;connectable=0;fillColor=#D4E1F5;top=1;left=1;bottom=1;right=1;overflow=hidden;strokeColor=#003366;strokeWidth=1;align=left;fontColor=#003366;spacingLeft=5;fontSize=10;spacing=0;" vertex="1" parent="k99aoyYJCD8kDP9gguMM-145">
          <mxGeometry x="40" width="100" height="18" as="geometry">
            <mxRectangle width="100" height="18" as="alternateBounds" />
          </mxGeometry>
        </mxCell>
        <mxCell id="k99aoyYJCD8kDP9gguMM-146" value="number" style="shape=partialRectangle;html=1;whiteSpace=wrap;connectable=0;fillColor=#D4E1F5;top=1;left=1;bottom=1;right=1;overflow=hidden;strokeColor=#003366;strokeWidth=1;align=left;fontColor=#003366;spacingLeft=5;fontSize=10;spacing=0;" vertex="1" parent="k99aoyYJCD8kDP9gguMM-145">
          <mxGeometry x="140" width="60" height="18" as="geometry">
            <mxRectangle width="60" height="18" as="alternateBounds" />
          </mxGeometry>
        </mxCell>
        <mxCell id="k99aoyYJCD8kDP9gguMM-436" value="" style="shape=tableRow;horizontal=0;startSize=0;swimlaneHead=0;swimlaneBody=0;top=0;left=0;bottom=0;right=0;collapsible=0;dropTarget=0;fillColor=none;points=[[0,0.5],[1,0.5]];portConstraint=eastwest;" vertex="1" parent="k99aoyYJCD8kDP9gguMM-140">
          <mxGeometry y="66" width="200" height="18" as="geometry" />
        </mxCell>
        <mxCell id="k99aoyYJCD8kDP9gguMM-437" value="FK" style="shape=partialRectangle;html=1;whiteSpace=wrap;connectable=1;fillColor=#D4E1F5;top=1;left=1;bottom=1;right=1;overflow=hidden;strokeColor=#003366;strokeWidth=1;allowArrows=1;snapToPoint=0;align=left;fontColor=#003366;spacingLeft=5;fontSize=10;spacing=0;" vertex="1" parent="k99aoyYJCD8kDP9gguMM-436">
          <mxGeometry width="40" height="18" as="geometry">
            <mxRectangle width="40" height="18" as="alternateBounds" />
          </mxGeometry>
        </mxCell>
        <mxCell id="k99aoyYJCD8kDP9gguMM-438" value="idClass" style="shape=partialRectangle;html=1;whiteSpace=wrap;connectable=1;fillColor=#D4E1F5;top=1;left=1;bottom=1;right=1;overflow=hidden;strokeColor=#003366;strokeWidth=1;allowArrows=1;snapToPoint=0;align=left;fontColor=#003366;spacingLeft=5;fontSize=10;spacing=0;" vertex="1" parent="k99aoyYJCD8kDP9gguMM-436">
          <mxGeometry x="40" width="100" height="18" as="geometry">
            <mxRectangle width="100" height="18" as="alternateBounds" />
          </mxGeometry>
        </mxCell>
        <mxCell id="k99aoyYJCD8kDP9gguMM-439" value="number" style="shape=partialRectangle;html=1;whiteSpace=wrap;connectable=1;fillColor=#D4E1F5;top=1;left=1;bottom=1;right=1;overflow=hidden;strokeColor=#003366;strokeWidth=1;allowArrows=1;snapToPoint=0;align=left;fontColor=#003366;spacingLeft=5;fontSize=10;spacing=0;" vertex="1" parent="k99aoyYJCD8kDP9gguMM-436">
          <mxGeometry x="140" width="60" height="18" as="geometry">
            <mxRectangle width="60" height="18" as="alternateBounds" />
          </mxGeometry>
        </mxCell>
        <mxCell id="k99aoyYJCD8kDP9gguMM-149" value="" style="shape=tableRow;horizontal=0;startSize=0;swimlaneHead=0;swimlaneBody=0;top=0;left=0;bottom=0;right=0;collapsible=0;dropTarget=0;fillColor=none;points=[[0,0.5],[1,0.5]];portConstraint=eastwest;" vertex="1" parent="k99aoyYJCD8kDP9gguMM-140">
          <mxGeometry y="84" width="200" height="18" as="geometry" />
        </mxCell>
        <mxCell id="k99aoyYJCD8kDP9gguMM-151" value="" style="shape=partialRectangle;html=1;whiteSpace=wrap;connectable=1;fillColor=#D4E1F5;top=1;left=1;bottom=1;right=1;overflow=hidden;strokeColor=#003366;strokeWidth=1;allowArrows=1;snapToPoint=0;align=left;fontColor=#003366;spacingLeft=5;fontSize=10;spacing=0;" vertex="1" parent="k99aoyYJCD8kDP9gguMM-149">
          <mxGeometry width="40" height="18" as="geometry">
            <mxRectangle width="40" height="18" as="alternateBounds" />
          </mxGeometry>
        </mxCell>
        <mxCell id="k99aoyYJCD8kDP9gguMM-152" value="email" style="shape=partialRectangle;html=1;whiteSpace=wrap;connectable=1;fillColor=#D4E1F5;top=1;left=1;bottom=1;right=1;overflow=hidden;strokeColor=#003366;strokeWidth=1;allowArrows=1;snapToPoint=0;align=left;fontColor=#003366;spacingLeft=5;fontSize=10;spacing=0;" vertex="1" parent="k99aoyYJCD8kDP9gguMM-149">
          <mxGeometry x="40" width="100" height="18" as="geometry">
            <mxRectangle width="100" height="18" as="alternateBounds" />
          </mxGeometry>
        </mxCell>
        <mxCell id="k99aoyYJCD8kDP9gguMM-150" value="string" style="shape=partialRectangle;html=1;whiteSpace=wrap;connectable=1;fillColor=#D4E1F5;top=1;left=1;bottom=1;right=1;overflow=hidden;strokeColor=#003366;strokeWidth=1;allowArrows=1;snapToPoint=0;align=left;fontColor=#003366;spacingLeft=5;fontSize=10;spacing=0;" vertex="1" parent="k99aoyYJCD8kDP9gguMM-149">
          <mxGeometry x="140" width="60" height="18" as="geometry">
            <mxRectangle width="60" height="18" as="alternateBounds" />
          </mxGeometry>
        </mxCell>
        <mxCell id="k99aoyYJCD8kDP9gguMM-191" value="" style="shape=tableRow;horizontal=0;startSize=0;swimlaneHead=0;swimlaneBody=0;top=0;left=0;bottom=0;right=0;collapsible=0;dropTarget=0;fillColor=none;points=[[0,0.5],[1,0.5]];portConstraint=eastwest;" vertex="1" parent="k99aoyYJCD8kDP9gguMM-140">
          <mxGeometry y="102" width="200" height="18" as="geometry" />
        </mxCell>
        <mxCell id="k99aoyYJCD8kDP9gguMM-192" value="" style="shape=partialRectangle;html=1;whiteSpace=wrap;connectable=1;fillColor=#D4E1F5;top=1;left=1;bottom=1;right=1;overflow=hidden;strokeColor=#003366;strokeWidth=1;allowArrows=1;snapToPoint=0;align=left;fontColor=#003366;spacingLeft=5;fontSize=10;spacing=0;" vertex="1" parent="k99aoyYJCD8kDP9gguMM-191">
          <mxGeometry width="40" height="18" as="geometry">
            <mxRectangle width="40" height="18" as="alternateBounds" />
          </mxGeometry>
        </mxCell>
        <mxCell id="k99aoyYJCD8kDP9gguMM-193" value="password" style="shape=partialRectangle;html=1;whiteSpace=wrap;connectable=1;fillColor=#D4E1F5;top=1;left=1;bottom=1;right=1;overflow=hidden;strokeColor=#003366;strokeWidth=1;allowArrows=1;snapToPoint=0;align=left;fontColor=#003366;spacingLeft=5;fontSize=10;spacing=0;" vertex="1" parent="k99aoyYJCD8kDP9gguMM-191">
          <mxGeometry x="40" width="100" height="18" as="geometry">
            <mxRectangle width="100" height="18" as="alternateBounds" />
          </mxGeometry>
        </mxCell>
        <mxCell id="k99aoyYJCD8kDP9gguMM-194" value="string" style="shape=partialRectangle;html=1;whiteSpace=wrap;connectable=1;fillColor=#D4E1F5;top=1;left=1;bottom=1;right=1;overflow=hidden;strokeColor=#003366;strokeWidth=1;allowArrows=1;snapToPoint=0;align=left;fontColor=#003366;spacingLeft=5;fontSize=10;spacing=0;" vertex="1" parent="k99aoyYJCD8kDP9gguMM-191">
          <mxGeometry x="140" width="60" height="18" as="geometry">
            <mxRectangle width="60" height="18" as="alternateBounds" />
          </mxGeometry>
        </mxCell>
        <mxCell id="k99aoyYJCD8kDP9gguMM-195" value="" style="shape=tableRow;horizontal=0;startSize=0;swimlaneHead=0;swimlaneBody=0;top=0;left=0;bottom=0;right=0;collapsible=0;dropTarget=0;fillColor=none;points=[[0,0.5],[1,0.5]];portConstraint=eastwest;" vertex="1" parent="k99aoyYJCD8kDP9gguMM-140">
          <mxGeometry y="120" width="200" height="18" as="geometry" />
        </mxCell>
        <mxCell id="k99aoyYJCD8kDP9gguMM-196" value="" style="shape=partialRectangle;html=1;whiteSpace=wrap;connectable=1;fillColor=#D4E1F5;top=1;left=1;bottom=1;right=1;overflow=hidden;strokeColor=#003366;strokeWidth=1;allowArrows=1;snapToPoint=0;align=left;fontColor=#003366;spacingLeft=5;fontSize=10;spacing=0;" vertex="1" parent="k99aoyYJCD8kDP9gguMM-195">
          <mxGeometry width="40" height="18" as="geometry">
            <mxRectangle width="40" height="18" as="alternateBounds" />
          </mxGeometry>
        </mxCell>
        <mxCell id="k99aoyYJCD8kDP9gguMM-197" value="firstName" style="shape=partialRectangle;html=1;whiteSpace=wrap;connectable=1;fillColor=#D4E1F5;top=1;left=1;bottom=1;right=1;overflow=hidden;strokeColor=#003366;strokeWidth=1;allowArrows=1;snapToPoint=0;align=left;fontColor=#003366;spacingLeft=5;fontSize=10;spacing=0;" vertex="1" parent="k99aoyYJCD8kDP9gguMM-195">
          <mxGeometry x="40" width="100" height="18" as="geometry">
            <mxRectangle width="100" height="18" as="alternateBounds" />
          </mxGeometry>
        </mxCell>
        <mxCell id="k99aoyYJCD8kDP9gguMM-198" value="string" style="shape=partialRectangle;html=1;whiteSpace=wrap;connectable=1;fillColor=#D4E1F5;top=1;left=1;bottom=1;right=1;overflow=hidden;strokeColor=#003366;strokeWidth=1;allowArrows=1;snapToPoint=0;align=left;fontColor=#003366;spacingLeft=5;fontSize=10;spacing=0;" vertex="1" parent="k99aoyYJCD8kDP9gguMM-195">
          <mxGeometry x="140" width="60" height="18" as="geometry">
            <mxRectangle width="60" height="18" as="alternateBounds" />
          </mxGeometry>
        </mxCell>
        <mxCell id="k99aoyYJCD8kDP9gguMM-199" value="" style="shape=tableRow;horizontal=0;startSize=0;swimlaneHead=0;swimlaneBody=0;top=0;left=0;bottom=0;right=0;collapsible=0;dropTarget=0;fillColor=none;points=[[0,0.5],[1,0.5]];portConstraint=eastwest;" vertex="1" parent="k99aoyYJCD8kDP9gguMM-140">
          <mxGeometry y="138" width="200" height="18" as="geometry" />
        </mxCell>
        <mxCell id="k99aoyYJCD8kDP9gguMM-200" value="" style="shape=partialRectangle;html=1;whiteSpace=wrap;connectable=1;fillColor=#D4E1F5;top=1;left=1;bottom=1;right=1;overflow=hidden;strokeColor=#003366;strokeWidth=1;allowArrows=1;snapToPoint=0;align=left;fontColor=#003366;spacingLeft=5;fontSize=10;spacing=0;" vertex="1" parent="k99aoyYJCD8kDP9gguMM-199">
          <mxGeometry width="40" height="18" as="geometry">
            <mxRectangle width="40" height="18" as="alternateBounds" />
          </mxGeometry>
        </mxCell>
        <mxCell id="k99aoyYJCD8kDP9gguMM-201" value="lastName" style="shape=partialRectangle;html=1;whiteSpace=wrap;connectable=1;fillColor=#D4E1F5;top=1;left=1;bottom=1;right=1;overflow=hidden;strokeColor=#003366;strokeWidth=1;allowArrows=1;snapToPoint=0;align=left;fontColor=#003366;spacingLeft=5;fontSize=10;spacing=0;" vertex="1" parent="k99aoyYJCD8kDP9gguMM-199">
          <mxGeometry x="40" width="100" height="18" as="geometry">
            <mxRectangle width="100" height="18" as="alternateBounds" />
          </mxGeometry>
        </mxCell>
        <mxCell id="k99aoyYJCD8kDP9gguMM-202" value="string" style="shape=partialRectangle;html=1;whiteSpace=wrap;connectable=1;fillColor=#D4E1F5;top=1;left=1;bottom=1;right=1;overflow=hidden;strokeColor=#003366;strokeWidth=1;allowArrows=1;snapToPoint=0;align=left;fontColor=#003366;spacingLeft=5;fontSize=10;spacing=0;" vertex="1" parent="k99aoyYJCD8kDP9gguMM-199">
          <mxGeometry x="140" width="60" height="18" as="geometry">
            <mxRectangle width="60" height="18" as="alternateBounds" />
          </mxGeometry>
        </mxCell>
        <mxCell id="k99aoyYJCD8kDP9gguMM-232" value="" style="shape=tableRow;horizontal=0;startSize=0;swimlaneHead=0;swimlaneBody=0;top=0;left=0;bottom=0;right=0;collapsible=0;dropTarget=0;fillColor=none;points=[[0,0.5],[1,0.5]];portConstraint=eastwest;" vertex="1" parent="k99aoyYJCD8kDP9gguMM-140">
          <mxGeometry y="156" width="200" height="18" as="geometry" />
        </mxCell>
        <mxCell id="k99aoyYJCD8kDP9gguMM-233" value="" style="shape=partialRectangle;html=1;whiteSpace=wrap;connectable=1;fillColor=#D4E1F5;top=1;left=1;bottom=1;right=1;overflow=hidden;strokeColor=#003366;strokeWidth=1;allowArrows=1;snapToPoint=0;align=left;fontColor=#003366;spacingLeft=5;fontSize=10;spacing=0;" vertex="1" parent="k99aoyYJCD8kDP9gguMM-232">
          <mxGeometry width="40" height="18" as="geometry">
            <mxRectangle width="40" height="18" as="alternateBounds" />
          </mxGeometry>
        </mxCell>
        <mxCell id="k99aoyYJCD8kDP9gguMM-234" value="birthday" style="shape=partialRectangle;html=1;whiteSpace=wrap;connectable=1;fillColor=#D4E1F5;top=1;left=1;bottom=1;right=1;overflow=hidden;strokeColor=#003366;strokeWidth=1;allowArrows=1;snapToPoint=0;align=left;fontColor=#003366;spacingLeft=5;fontSize=10;spacing=0;" vertex="1" parent="k99aoyYJCD8kDP9gguMM-232">
          <mxGeometry x="40" width="100" height="18" as="geometry">
            <mxRectangle width="100" height="18" as="alternateBounds" />
          </mxGeometry>
        </mxCell>
        <mxCell id="k99aoyYJCD8kDP9gguMM-235" value="date" style="shape=partialRectangle;html=1;whiteSpace=wrap;connectable=1;fillColor=#D4E1F5;top=1;left=1;bottom=1;right=1;overflow=hidden;strokeColor=#003366;strokeWidth=1;allowArrows=1;snapToPoint=0;align=left;fontColor=#003366;spacingLeft=5;fontSize=10;spacing=0;" vertex="1" parent="k99aoyYJCD8kDP9gguMM-232">
          <mxGeometry x="140" width="60" height="18" as="geometry">
            <mxRectangle width="60" height="18" as="alternateBounds" />
          </mxGeometry>
        </mxCell>
        <mxCell id="k99aoyYJCD8kDP9gguMM-236" value="" style="shape=tableRow;horizontal=0;startSize=0;swimlaneHead=0;swimlaneBody=0;top=0;left=0;bottom=0;right=0;collapsible=0;dropTarget=0;fillColor=none;points=[[0,0.5],[1,0.5]];portConstraint=eastwest;" vertex="1" parent="k99aoyYJCD8kDP9gguMM-140">
          <mxGeometry y="174" width="200" height="18" as="geometry" />
        </mxCell>
        <mxCell id="k99aoyYJCD8kDP9gguMM-237" value="" style="shape=partialRectangle;html=1;whiteSpace=wrap;connectable=1;fillColor=#D4E1F5;top=1;left=1;bottom=1;right=1;overflow=hidden;strokeColor=#003366;strokeWidth=1;allowArrows=1;snapToPoint=0;align=left;fontColor=#003366;spacingLeft=5;fontSize=10;spacing=0;" vertex="1" parent="k99aoyYJCD8kDP9gguMM-236">
          <mxGeometry width="40" height="18" as="geometry">
            <mxRectangle width="40" height="18" as="alternateBounds" />
          </mxGeometry>
        </mxCell>
        <mxCell id="k99aoyYJCD8kDP9gguMM-238" value="supervision" style="shape=partialRectangle;html=1;whiteSpace=wrap;connectable=1;fillColor=#D4E1F5;top=1;left=1;bottom=1;right=1;overflow=hidden;strokeColor=#003366;strokeWidth=1;allowArrows=1;snapToPoint=0;align=left;fontColor=#003366;spacingLeft=5;fontSize=10;spacing=0;" vertex="1" parent="k99aoyYJCD8kDP9gguMM-236">
          <mxGeometry x="40" width="100" height="18" as="geometry">
            <mxRectangle width="100" height="18" as="alternateBounds" />
          </mxGeometry>
        </mxCell>
        <mxCell id="k99aoyYJCD8kDP9gguMM-239" value="string" style="shape=partialRectangle;html=1;whiteSpace=wrap;connectable=1;fillColor=#D4E1F5;top=1;left=1;bottom=1;right=1;overflow=hidden;strokeColor=#003366;strokeWidth=1;allowArrows=1;snapToPoint=0;align=left;fontColor=#003366;spacingLeft=5;fontSize=10;spacing=0;" vertex="1" parent="k99aoyYJCD8kDP9gguMM-236">
          <mxGeometry x="140" width="60" height="18" as="geometry">
            <mxRectangle width="60" height="18" as="alternateBounds" />
          </mxGeometry>
        </mxCell>
        <mxCell id="k99aoyYJCD8kDP9gguMM-273" value="" style="shape=tableRow;horizontal=0;startSize=0;swimlaneHead=0;swimlaneBody=0;top=0;left=0;bottom=0;right=0;collapsible=0;dropTarget=0;fillColor=none;points=[[0,0.5],[1,0.5]];portConstraint=eastwest;" vertex="1" parent="k99aoyYJCD8kDP9gguMM-140">
          <mxGeometry y="192" width="200" height="18" as="geometry" />
        </mxCell>
        <mxCell id="k99aoyYJCD8kDP9gguMM-274" value="" style="shape=partialRectangle;html=1;whiteSpace=wrap;connectable=1;fillColor=#D4E1F5;top=1;left=1;bottom=1;right=1;overflow=hidden;strokeColor=#003366;strokeWidth=1;allowArrows=1;snapToPoint=0;align=left;fontColor=#003366;spacingLeft=5;fontSize=10;spacing=0;" vertex="1" parent="k99aoyYJCD8kDP9gguMM-273">
          <mxGeometry width="40" height="18" as="geometry">
            <mxRectangle width="40" height="18" as="alternateBounds" />
          </mxGeometry>
        </mxCell>
        <mxCell id="k99aoyYJCD8kDP9gguMM-275" value="supervisionArea" style="shape=partialRectangle;html=1;whiteSpace=wrap;connectable=1;fillColor=#D4E1F5;top=1;left=1;bottom=1;right=1;overflow=hidden;strokeColor=#003366;strokeWidth=1;allowArrows=1;snapToPoint=0;align=left;fontColor=#003366;spacingLeft=5;fontSize=10;spacing=0;" vertex="1" parent="k99aoyYJCD8kDP9gguMM-273">
          <mxGeometry x="40" width="100" height="18" as="geometry">
            <mxRectangle width="100" height="18" as="alternateBounds" />
          </mxGeometry>
        </mxCell>
        <mxCell id="k99aoyYJCD8kDP9gguMM-276" value="string" style="shape=partialRectangle;html=1;whiteSpace=wrap;connectable=1;fillColor=#D4E1F5;top=1;left=1;bottom=1;right=1;overflow=hidden;strokeColor=#003366;strokeWidth=1;allowArrows=1;snapToPoint=0;align=left;fontColor=#003366;spacingLeft=5;fontSize=10;spacing=0;" vertex="1" parent="k99aoyYJCD8kDP9gguMM-273">
          <mxGeometry x="140" width="60" height="18" as="geometry">
            <mxRectangle width="60" height="18" as="alternateBounds" />
          </mxGeometry>
        </mxCell>
        <mxCell id="k99aoyYJCD8kDP9gguMM-277" value="" style="shape=tableRow;horizontal=0;startSize=0;swimlaneHead=0;swimlaneBody=0;top=0;left=0;bottom=0;right=0;collapsible=0;dropTarget=0;fillColor=none;points=[[0,0.5],[1,0.5]];portConstraint=eastwest;" vertex="1" parent="k99aoyYJCD8kDP9gguMM-140">
          <mxGeometry y="210" width="200" height="18" as="geometry" />
        </mxCell>
        <mxCell id="k99aoyYJCD8kDP9gguMM-278" value="" style="shape=partialRectangle;html=1;whiteSpace=wrap;connectable=1;fillColor=#D4E1F5;top=1;left=1;bottom=1;right=1;overflow=hidden;strokeColor=#003366;strokeWidth=1;allowArrows=1;snapToPoint=0;align=left;fontColor=#003366;spacingLeft=5;fontSize=10;spacing=0;" vertex="1" parent="k99aoyYJCD8kDP9gguMM-277">
          <mxGeometry width="40" height="18" as="geometry">
            <mxRectangle width="40" height="18" as="alternateBounds" />
          </mxGeometry>
        </mxCell>
        <mxCell id="k99aoyYJCD8kDP9gguMM-279" value="phone" style="shape=partialRectangle;html=1;whiteSpace=wrap;connectable=1;fillColor=#D4E1F5;top=1;left=1;bottom=1;right=1;overflow=hidden;strokeColor=#003366;strokeWidth=1;allowArrows=1;snapToPoint=0;align=left;fontColor=#003366;spacingLeft=5;fontSize=10;spacing=0;" vertex="1" parent="k99aoyYJCD8kDP9gguMM-277">
          <mxGeometry x="40" width="100" height="18" as="geometry">
            <mxRectangle width="100" height="18" as="alternateBounds" />
          </mxGeometry>
        </mxCell>
        <mxCell id="k99aoyYJCD8kDP9gguMM-280" value="number" style="shape=partialRectangle;html=1;whiteSpace=wrap;connectable=1;fillColor=#D4E1F5;top=1;left=1;bottom=1;right=1;overflow=hidden;strokeColor=#003366;strokeWidth=1;allowArrows=1;snapToPoint=0;align=left;fontColor=#003366;spacingLeft=5;fontSize=10;spacing=0;" vertex="1" parent="k99aoyYJCD8kDP9gguMM-277">
          <mxGeometry x="140" width="60" height="18" as="geometry">
            <mxRectangle width="60" height="18" as="alternateBounds" />
          </mxGeometry>
        </mxCell>
        <mxCell id="k99aoyYJCD8kDP9gguMM-281" value="" style="shape=tableRow;horizontal=0;startSize=0;swimlaneHead=0;swimlaneBody=0;top=0;left=0;bottom=0;right=0;collapsible=0;dropTarget=0;fillColor=none;points=[[0,0.5],[1,0.5]];portConstraint=eastwest;" vertex="1" parent="k99aoyYJCD8kDP9gguMM-140">
          <mxGeometry y="228" width="200" height="18" as="geometry" />
        </mxCell>
        <mxCell id="k99aoyYJCD8kDP9gguMM-282" value="" style="shape=partialRectangle;html=1;whiteSpace=wrap;connectable=1;fillColor=#D4E1F5;top=1;left=1;bottom=1;right=1;overflow=hidden;strokeColor=#003366;strokeWidth=1;allowArrows=1;snapToPoint=0;align=left;fontColor=#003366;spacingLeft=5;fontSize=10;spacing=0;" vertex="1" parent="k99aoyYJCD8kDP9gguMM-281">
          <mxGeometry width="40" height="18" as="geometry">
            <mxRectangle width="40" height="18" as="alternateBounds" />
          </mxGeometry>
        </mxCell>
        <mxCell id="k99aoyYJCD8kDP9gguMM-283" value="photo" style="shape=partialRectangle;html=1;whiteSpace=wrap;connectable=1;fillColor=#D4E1F5;top=1;left=1;bottom=1;right=1;overflow=hidden;strokeColor=#003366;strokeWidth=1;allowArrows=1;snapToPoint=0;align=left;fontColor=#003366;spacingLeft=5;fontSize=10;spacing=0;" vertex="1" parent="k99aoyYJCD8kDP9gguMM-281">
          <mxGeometry x="40" width="100" height="18" as="geometry">
            <mxRectangle width="100" height="18" as="alternateBounds" />
          </mxGeometry>
        </mxCell>
        <mxCell id="k99aoyYJCD8kDP9gguMM-284" value="image" style="shape=partialRectangle;html=1;whiteSpace=wrap;connectable=1;fillColor=#D4E1F5;top=1;left=1;bottom=1;right=1;overflow=hidden;strokeColor=#003366;strokeWidth=1;allowArrows=1;snapToPoint=0;align=left;fontColor=#003366;spacingLeft=5;fontSize=10;spacing=0;" vertex="1" parent="k99aoyYJCD8kDP9gguMM-281">
          <mxGeometry x="140" width="60" height="18" as="geometry">
            <mxRectangle width="60" height="18" as="alternateBounds" />
          </mxGeometry>
        </mxCell>
        <mxCell id="k99aoyYJCD8kDP9gguMM-285" value="Classroom" style="shape=table;startSize=30;container=1;collapsible=0;childLayout=tableLayout;fontStyle=5;align=center;fillColor=#D4E1F5;strokeColor=#003366;fontColor=#003366;verticalAlign=top;swimlaneLine=1;sketch=0;perimeterSpacing=1;" vertex="1" parent="1">
          <mxGeometry x="40" y="320" width="200" height="138.16000000000008" as="geometry" />
        </mxCell>
        <mxCell id="k99aoyYJCD8kDP9gguMM-286" value="" style="shape=tableRow;horizontal=0;startSize=0;swimlaneHead=0;swimlaneBody=0;top=0;left=0;bottom=0;right=0;collapsible=0;dropTarget=0;fillColor=none;points=[[0,0.5],[1,0.5]];portConstraint=eastwest;" vertex="1" parent="k99aoyYJCD8kDP9gguMM-285">
          <mxGeometry y="30" width="200" height="18" as="geometry" />
        </mxCell>
        <mxCell id="k99aoyYJCD8kDP9gguMM-287" value="PK" style="shape=partialRectangle;html=1;whiteSpace=wrap;connectable=0;fillColor=#D4E1F5;top=1;left=1;bottom=1;right=1;overflow=hidden;strokeColor=#003366;strokeWidth=1;align=left;fontColor=#003366;spacingLeft=5;fontSize=10;spacing=0;allowArrows=1;expand=1;resizeHeight=0;resizeWidth=0;" vertex="1" parent="k99aoyYJCD8kDP9gguMM-286">
          <mxGeometry width="40" height="18" as="geometry">
            <mxRectangle width="40" height="18" as="alternateBounds" />
          </mxGeometry>
        </mxCell>
        <mxCell id="k99aoyYJCD8kDP9gguMM-288" value="id" style="shape=partialRectangle;html=1;whiteSpace=wrap;connectable=0;fillColor=#D4E1F5;top=1;left=1;bottom=1;right=1;overflow=hidden;strokeColor=#003366;strokeWidth=1;align=left;fontColor=#003366;spacingLeft=5;fontSize=10;spacing=0;allowArrows=1;expand=1;resizeHeight=0;resizeWidth=0;" vertex="1" parent="k99aoyYJCD8kDP9gguMM-286">
          <mxGeometry x="40" width="100" height="18" as="geometry">
            <mxRectangle width="100" height="18" as="alternateBounds" />
          </mxGeometry>
        </mxCell>
        <mxCell id="k99aoyYJCD8kDP9gguMM-289" value="number" style="shape=partialRectangle;html=1;whiteSpace=wrap;connectable=0;fillColor=#D4E1F5;top=1;left=1;bottom=1;right=1;overflow=hidden;strokeColor=#003366;strokeWidth=1;align=left;fontColor=#003366;spacingLeft=5;fontSize=10;spacing=0;allowArrows=1;expand=1;resizeHeight=0;resizeWidth=0;" vertex="1" parent="k99aoyYJCD8kDP9gguMM-286">
          <mxGeometry x="140" width="60" height="18" as="geometry">
            <mxRectangle width="60" height="18" as="alternateBounds" />
          </mxGeometry>
        </mxCell>
        <mxCell id="k99aoyYJCD8kDP9gguMM-397" value="" style="shape=tableRow;horizontal=0;startSize=0;swimlaneHead=0;swimlaneBody=0;top=0;left=0;bottom=0;right=0;collapsible=0;dropTarget=0;fillColor=none;points=[[0,0.5],[1,0.5]];portConstraint=eastwest;" vertex="1" parent="k99aoyYJCD8kDP9gguMM-285">
          <mxGeometry y="48" width="200" height="18" as="geometry" />
        </mxCell>
        <mxCell id="k99aoyYJCD8kDP9gguMM-398" value="FK" style="shape=partialRectangle;html=1;whiteSpace=wrap;connectable=1;fillColor=#D4E1F5;top=1;left=1;bottom=1;right=1;overflow=hidden;strokeColor=#003366;strokeWidth=1;allowArrows=1;snapToPoint=0;align=left;fontColor=#003366;spacingLeft=5;fontSize=10;spacing=0;" vertex="1" parent="k99aoyYJCD8kDP9gguMM-397">
          <mxGeometry width="40" height="18" as="geometry">
            <mxRectangle width="40" height="18" as="alternateBounds" />
          </mxGeometry>
        </mxCell>
        <mxCell id="k99aoyYJCD8kDP9gguMM-399" value="idClass" style="shape=partialRectangle;html=1;whiteSpace=wrap;connectable=1;fillColor=#D4E1F5;top=1;left=1;bottom=1;right=1;overflow=hidden;strokeColor=#003366;strokeWidth=1;allowArrows=1;snapToPoint=0;align=left;fontColor=#003366;spacingLeft=5;fontSize=10;spacing=0;" vertex="1" parent="k99aoyYJCD8kDP9gguMM-397">
          <mxGeometry x="40" width="100" height="18" as="geometry">
            <mxRectangle width="100" height="18" as="alternateBounds" />
          </mxGeometry>
        </mxCell>
        <mxCell id="k99aoyYJCD8kDP9gguMM-400" value="number" style="shape=partialRectangle;html=1;whiteSpace=wrap;connectable=1;fillColor=#D4E1F5;top=1;left=1;bottom=1;right=1;overflow=hidden;strokeColor=#003366;strokeWidth=1;allowArrows=1;snapToPoint=0;align=left;fontColor=#003366;spacingLeft=5;fontSize=10;spacing=0;" vertex="1" parent="k99aoyYJCD8kDP9gguMM-397">
          <mxGeometry x="140" width="60" height="18" as="geometry">
            <mxRectangle width="60" height="18" as="alternateBounds" />
          </mxGeometry>
        </mxCell>
        <mxCell id="k99aoyYJCD8kDP9gguMM-290" value="" style="shape=tableRow;horizontal=0;startSize=0;swimlaneHead=0;swimlaneBody=0;top=0;left=0;bottom=0;right=0;collapsible=0;dropTarget=0;fillColor=none;points=[[0,0.5],[1,0.5]];portConstraint=eastwest;" vertex="1" parent="k99aoyYJCD8kDP9gguMM-285">
          <mxGeometry y="66" width="200" height="18" as="geometry" />
        </mxCell>
        <mxCell id="k99aoyYJCD8kDP9gguMM-291" value="" style="shape=partialRectangle;html=1;whiteSpace=wrap;connectable=0;fillColor=#D4E1F5;top=1;left=1;bottom=1;right=1;overflow=hidden;strokeColor=#003366;strokeWidth=1;align=left;fontColor=#003366;spacingLeft=5;fontSize=10;spacing=0;" vertex="1" parent="k99aoyYJCD8kDP9gguMM-290">
          <mxGeometry width="40" height="18" as="geometry">
            <mxRectangle width="40" height="18" as="alternateBounds" />
          </mxGeometry>
        </mxCell>
        <mxCell id="k99aoyYJCD8kDP9gguMM-292" value="floor" style="shape=partialRectangle;html=1;whiteSpace=wrap;connectable=0;fillColor=#D4E1F5;top=1;left=1;bottom=1;right=1;overflow=hidden;strokeColor=#003366;strokeWidth=1;align=left;fontColor=#003366;spacingLeft=5;fontSize=10;spacing=0;" vertex="1" parent="k99aoyYJCD8kDP9gguMM-290">
          <mxGeometry x="40" width="100" height="18" as="geometry">
            <mxRectangle width="100" height="18" as="alternateBounds" />
          </mxGeometry>
        </mxCell>
        <mxCell id="k99aoyYJCD8kDP9gguMM-293" value="number" style="shape=partialRectangle;html=1;whiteSpace=wrap;connectable=0;fillColor=#D4E1F5;top=1;left=1;bottom=1;right=1;overflow=hidden;strokeColor=#003366;strokeWidth=1;align=left;fontColor=#003366;spacingLeft=5;fontSize=10;spacing=0;" vertex="1" parent="k99aoyYJCD8kDP9gguMM-290">
          <mxGeometry x="140" width="60" height="18" as="geometry">
            <mxRectangle width="60" height="18" as="alternateBounds" />
          </mxGeometry>
        </mxCell>
        <mxCell id="k99aoyYJCD8kDP9gguMM-294" value="" style="shape=tableRow;horizontal=0;startSize=0;swimlaneHead=0;swimlaneBody=0;top=0;left=0;bottom=0;right=0;collapsible=0;dropTarget=0;fillColor=none;points=[[0,0.5],[1,0.5]];portConstraint=eastwest;" vertex="1" parent="k99aoyYJCD8kDP9gguMM-285">
          <mxGeometry y="84" width="200" height="18" as="geometry" />
        </mxCell>
        <mxCell id="k99aoyYJCD8kDP9gguMM-295" value="" style="shape=partialRectangle;html=1;whiteSpace=wrap;connectable=1;fillColor=#D4E1F5;top=1;left=1;bottom=1;right=1;overflow=hidden;strokeColor=#003366;strokeWidth=1;allowArrows=1;snapToPoint=0;align=left;fontColor=#003366;spacingLeft=5;fontSize=10;spacing=0;" vertex="1" parent="k99aoyYJCD8kDP9gguMM-294">
          <mxGeometry width="40" height="18" as="geometry">
            <mxRectangle width="40" height="18" as="alternateBounds" />
          </mxGeometry>
        </mxCell>
        <mxCell id="k99aoyYJCD8kDP9gguMM-296" value="classroomNumber" style="shape=partialRectangle;html=1;whiteSpace=wrap;connectable=1;fillColor=#D4E1F5;top=1;left=1;bottom=1;right=1;overflow=hidden;strokeColor=#003366;strokeWidth=1;allowArrows=1;snapToPoint=0;align=left;fontColor=#003366;spacingLeft=5;fontSize=10;spacing=0;" vertex="1" parent="k99aoyYJCD8kDP9gguMM-294">
          <mxGeometry x="40" width="100" height="18" as="geometry">
            <mxRectangle width="100" height="18" as="alternateBounds" />
          </mxGeometry>
        </mxCell>
        <mxCell id="k99aoyYJCD8kDP9gguMM-297" value="number" style="shape=partialRectangle;html=1;whiteSpace=wrap;connectable=1;fillColor=#D4E1F5;top=1;left=1;bottom=1;right=1;overflow=hidden;strokeColor=#003366;strokeWidth=1;allowArrows=1;snapToPoint=0;align=left;fontColor=#003366;spacingLeft=5;fontSize=10;spacing=0;" vertex="1" parent="k99aoyYJCD8kDP9gguMM-294">
          <mxGeometry x="140" width="60" height="18" as="geometry">
            <mxRectangle width="60" height="18" as="alternateBounds" />
          </mxGeometry>
        </mxCell>
        <mxCell id="k99aoyYJCD8kDP9gguMM-298" value="" style="shape=tableRow;horizontal=0;startSize=0;swimlaneHead=0;swimlaneBody=0;top=0;left=0;bottom=0;right=0;collapsible=0;dropTarget=0;fillColor=none;points=[[0,0.5],[1,0.5]];portConstraint=eastwest;" vertex="1" parent="k99aoyYJCD8kDP9gguMM-285">
          <mxGeometry y="102" width="200" height="18" as="geometry" />
        </mxCell>
        <mxCell id="k99aoyYJCD8kDP9gguMM-299" value="" style="shape=partialRectangle;html=1;whiteSpace=wrap;connectable=1;fillColor=#D4E1F5;top=1;left=1;bottom=1;right=1;overflow=hidden;strokeColor=#003366;strokeWidth=1;allowArrows=1;snapToPoint=0;align=left;fontColor=#003366;spacingLeft=5;fontSize=10;spacing=0;" vertex="1" parent="k99aoyYJCD8kDP9gguMM-298">
          <mxGeometry width="40" height="18" as="geometry">
            <mxRectangle width="40" height="18" as="alternateBounds" />
          </mxGeometry>
        </mxCell>
        <mxCell id="k99aoyYJCD8kDP9gguMM-300" value="numberStudents" style="shape=partialRectangle;html=1;whiteSpace=wrap;connectable=1;fillColor=#D4E1F5;top=1;left=1;bottom=1;right=1;overflow=hidden;strokeColor=#003366;strokeWidth=1;allowArrows=1;snapToPoint=0;align=left;fontColor=#003366;spacingLeft=5;fontSize=10;spacing=0;" vertex="1" parent="k99aoyYJCD8kDP9gguMM-298">
          <mxGeometry x="40" width="100" height="18" as="geometry">
            <mxRectangle width="100" height="18" as="alternateBounds" />
          </mxGeometry>
        </mxCell>
        <mxCell id="k99aoyYJCD8kDP9gguMM-301" value="number" style="shape=partialRectangle;html=1;whiteSpace=wrap;connectable=1;fillColor=#D4E1F5;top=1;left=1;bottom=1;right=1;overflow=hidden;strokeColor=#003366;strokeWidth=1;allowArrows=1;snapToPoint=0;align=left;fontColor=#003366;spacingLeft=5;fontSize=10;spacing=0;" vertex="1" parent="k99aoyYJCD8kDP9gguMM-298">
          <mxGeometry x="140" width="60" height="18" as="geometry">
            <mxRectangle width="60" height="18" as="alternateBounds" />
          </mxGeometry>
        </mxCell>
        <mxCell id="k99aoyYJCD8kDP9gguMM-302" value="" style="shape=tableRow;horizontal=0;startSize=0;swimlaneHead=0;swimlaneBody=0;top=0;left=0;bottom=0;right=0;collapsible=0;dropTarget=0;fillColor=none;points=[[0,0.5],[1,0.5]];portConstraint=eastwest;" vertex="1" parent="k99aoyYJCD8kDP9gguMM-285">
          <mxGeometry y="120" width="200" height="18" as="geometry" />
        </mxCell>
        <mxCell id="k99aoyYJCD8kDP9gguMM-303" value="" style="shape=partialRectangle;html=1;whiteSpace=wrap;connectable=1;fillColor=#D4E1F5;top=1;left=1;bottom=1;right=1;overflow=hidden;strokeColor=#003366;strokeWidth=1;allowArrows=1;snapToPoint=0;align=left;fontColor=#003366;spacingLeft=5;fontSize=10;spacing=0;" vertex="1" parent="k99aoyYJCD8kDP9gguMM-302">
          <mxGeometry width="40" height="18" as="geometry">
            <mxRectangle width="40" height="18" as="alternateBounds" />
          </mxGeometry>
        </mxCell>
        <mxCell id="k99aoyYJCD8kDP9gguMM-304" value="photo" style="shape=partialRectangle;html=1;whiteSpace=wrap;connectable=1;fillColor=#D4E1F5;top=1;left=1;bottom=1;right=1;overflow=hidden;strokeColor=#003366;strokeWidth=1;allowArrows=1;snapToPoint=0;align=left;fontColor=#003366;spacingLeft=5;fontSize=10;spacing=0;" vertex="1" parent="k99aoyYJCD8kDP9gguMM-302">
          <mxGeometry x="40" width="100" height="18" as="geometry">
            <mxRectangle width="100" height="18" as="alternateBounds" />
          </mxGeometry>
        </mxCell>
        <mxCell id="k99aoyYJCD8kDP9gguMM-305" value="image" style="shape=partialRectangle;html=1;whiteSpace=wrap;connectable=1;fillColor=#D4E1F5;top=1;left=1;bottom=1;right=1;overflow=hidden;strokeColor=#003366;strokeWidth=1;allowArrows=1;snapToPoint=0;align=left;fontColor=#003366;spacingLeft=5;fontSize=10;spacing=0;" vertex="1" parent="k99aoyYJCD8kDP9gguMM-302">
          <mxGeometry x="140" width="60" height="18" as="geometry">
            <mxRectangle width="60" height="18" as="alternateBounds" />
          </mxGeometry>
        </mxCell>
        <mxCell id="k99aoyYJCD8kDP9gguMM-367" value="" style="edgeStyle=orthogonalEdgeStyle;rounded=0;orthogonalLoop=1;jettySize=auto;html=1;fontSize=10;fontColor=#003366;startArrow=ERmany;startFill=0;endArrow=ERone;endFill=0;" edge="1" parent="1" source="k99aoyYJCD8kDP9gguMM-338" target="k99aoyYJCD8kDP9gguMM-285">
          <mxGeometry relative="1" as="geometry">
            <Array as="points">
              <mxPoint x="140" y="500" />
              <mxPoint x="140" y="500" />
            </Array>
          </mxGeometry>
        </mxCell>
        <mxCell id="k99aoyYJCD8kDP9gguMM-338" value="Notification" style="shape=table;startSize=30;container=1;collapsible=0;childLayout=tableLayout;fontStyle=5;align=center;fillColor=#D4E1F5;strokeColor=#003366;fontColor=#003366;verticalAlign=top;swimlaneLine=1;sketch=0;perimeterSpacing=1;" vertex="1" parent="1">
          <mxGeometry x="39" y="520" width="200" height="174.16000000000008" as="geometry" />
        </mxCell>
        <mxCell id="k99aoyYJCD8kDP9gguMM-339" value="" style="shape=tableRow;horizontal=0;startSize=0;swimlaneHead=0;swimlaneBody=0;top=0;left=0;bottom=0;right=0;collapsible=0;dropTarget=0;fillColor=none;points=[[0,0.5],[1,0.5]];portConstraint=eastwest;" vertex="1" parent="k99aoyYJCD8kDP9gguMM-338">
          <mxGeometry y="30" width="200" height="18" as="geometry" />
        </mxCell>
        <mxCell id="k99aoyYJCD8kDP9gguMM-340" value="PK" style="shape=partialRectangle;html=1;whiteSpace=wrap;connectable=0;fillColor=#D4E1F5;top=1;left=1;bottom=1;right=1;overflow=hidden;strokeColor=#003366;strokeWidth=1;align=left;fontColor=#003366;spacingLeft=5;fontSize=10;spacing=0;allowArrows=1;expand=1;resizeHeight=0;resizeWidth=0;" vertex="1" parent="k99aoyYJCD8kDP9gguMM-339">
          <mxGeometry width="40" height="18" as="geometry">
            <mxRectangle width="40" height="18" as="alternateBounds" />
          </mxGeometry>
        </mxCell>
        <mxCell id="k99aoyYJCD8kDP9gguMM-341" value="id" style="shape=partialRectangle;html=1;whiteSpace=wrap;connectable=0;fillColor=#D4E1F5;top=1;left=1;bottom=1;right=1;overflow=hidden;strokeColor=#003366;strokeWidth=1;align=left;fontColor=#003366;spacingLeft=5;fontSize=10;spacing=0;allowArrows=1;expand=1;resizeHeight=0;resizeWidth=0;" vertex="1" parent="k99aoyYJCD8kDP9gguMM-339">
          <mxGeometry x="40" width="100" height="18" as="geometry">
            <mxRectangle width="100" height="18" as="alternateBounds" />
          </mxGeometry>
        </mxCell>
        <mxCell id="k99aoyYJCD8kDP9gguMM-342" value="number" style="shape=partialRectangle;html=1;whiteSpace=wrap;connectable=0;fillColor=#D4E1F5;top=1;left=1;bottom=1;right=1;overflow=hidden;strokeColor=#003366;strokeWidth=1;align=left;fontColor=#003366;spacingLeft=5;fontSize=10;spacing=0;allowArrows=1;expand=1;resizeHeight=0;resizeWidth=0;" vertex="1" parent="k99aoyYJCD8kDP9gguMM-339">
          <mxGeometry x="140" width="60" height="18" as="geometry">
            <mxRectangle width="60" height="18" as="alternateBounds" />
          </mxGeometry>
        </mxCell>
        <mxCell id="k99aoyYJCD8kDP9gguMM-343" value="" style="shape=tableRow;horizontal=0;startSize=0;swimlaneHead=0;swimlaneBody=0;top=0;left=0;bottom=0;right=0;collapsible=0;dropTarget=0;fillColor=none;points=[[0,0.5],[1,0.5]];portConstraint=eastwest;" vertex="1" parent="k99aoyYJCD8kDP9gguMM-338">
          <mxGeometry y="48" width="200" height="18" as="geometry" />
        </mxCell>
        <mxCell id="k99aoyYJCD8kDP9gguMM-344" value="FK" style="shape=partialRectangle;html=1;whiteSpace=wrap;connectable=0;fillColor=#D4E1F5;top=1;left=1;bottom=1;right=1;overflow=hidden;strokeColor=#003366;strokeWidth=1;align=left;fontColor=#003366;spacingLeft=5;fontSize=10;spacing=0;" vertex="1" parent="k99aoyYJCD8kDP9gguMM-343">
          <mxGeometry width="40" height="18" as="geometry">
            <mxRectangle width="40" height="18" as="alternateBounds" />
          </mxGeometry>
        </mxCell>
        <mxCell id="k99aoyYJCD8kDP9gguMM-345" value="idClassroom" style="shape=partialRectangle;html=1;whiteSpace=wrap;connectable=0;fillColor=#D4E1F5;top=1;left=1;bottom=1;right=1;overflow=hidden;strokeColor=#003366;strokeWidth=1;align=left;fontColor=#003366;spacingLeft=5;fontSize=10;spacing=0;" vertex="1" parent="k99aoyYJCD8kDP9gguMM-343">
          <mxGeometry x="40" width="100" height="18" as="geometry">
            <mxRectangle width="100" height="18" as="alternateBounds" />
          </mxGeometry>
        </mxCell>
        <mxCell id="k99aoyYJCD8kDP9gguMM-346" value="number" style="shape=partialRectangle;html=1;whiteSpace=wrap;connectable=0;fillColor=#D4E1F5;top=1;left=1;bottom=1;right=1;overflow=hidden;strokeColor=#003366;strokeWidth=1;align=left;fontColor=#003366;spacingLeft=5;fontSize=10;spacing=0;" vertex="1" parent="k99aoyYJCD8kDP9gguMM-343">
          <mxGeometry x="140" width="60" height="18" as="geometry">
            <mxRectangle width="60" height="18" as="alternateBounds" />
          </mxGeometry>
        </mxCell>
        <mxCell id="k99aoyYJCD8kDP9gguMM-444" value="" style="shape=tableRow;horizontal=0;startSize=0;swimlaneHead=0;swimlaneBody=0;top=0;left=0;bottom=0;right=0;collapsible=0;dropTarget=0;fillColor=none;points=[[0,0.5],[1,0.5]];portConstraint=eastwest;" vertex="1" parent="k99aoyYJCD8kDP9gguMM-338">
          <mxGeometry y="66" width="200" height="18" as="geometry" />
        </mxCell>
        <mxCell id="k99aoyYJCD8kDP9gguMM-445" value="FK" style="shape=partialRectangle;html=1;whiteSpace=wrap;connectable=1;fillColor=#D4E1F5;top=1;left=1;bottom=1;right=1;overflow=hidden;strokeColor=#003366;strokeWidth=1;allowArrows=1;snapToPoint=0;align=left;fontColor=#003366;spacingLeft=5;fontSize=10;spacing=0;" vertex="1" parent="k99aoyYJCD8kDP9gguMM-444">
          <mxGeometry width="40" height="18" as="geometry">
            <mxRectangle width="40" height="18" as="alternateBounds" />
          </mxGeometry>
        </mxCell>
        <mxCell id="k99aoyYJCD8kDP9gguMM-446" value="idClass" style="shape=partialRectangle;html=1;whiteSpace=wrap;connectable=1;fillColor=#D4E1F5;top=1;left=1;bottom=1;right=1;overflow=hidden;strokeColor=#003366;strokeWidth=1;allowArrows=1;snapToPoint=0;align=left;fontColor=#003366;spacingLeft=5;fontSize=10;spacing=0;" vertex="1" parent="k99aoyYJCD8kDP9gguMM-444">
          <mxGeometry x="40" width="100" height="18" as="geometry">
            <mxRectangle width="100" height="18" as="alternateBounds" />
          </mxGeometry>
        </mxCell>
        <mxCell id="k99aoyYJCD8kDP9gguMM-447" value="number" style="shape=partialRectangle;html=1;whiteSpace=wrap;connectable=1;fillColor=#D4E1F5;top=1;left=1;bottom=1;right=1;overflow=hidden;strokeColor=#003366;strokeWidth=1;allowArrows=1;snapToPoint=0;align=left;fontColor=#003366;spacingLeft=5;fontSize=10;spacing=0;" vertex="1" parent="k99aoyYJCD8kDP9gguMM-444">
          <mxGeometry x="140" width="60" height="18" as="geometry">
            <mxRectangle width="60" height="18" as="alternateBounds" />
          </mxGeometry>
        </mxCell>
        <mxCell id="k99aoyYJCD8kDP9gguMM-347" value="" style="shape=tableRow;horizontal=0;startSize=0;swimlaneHead=0;swimlaneBody=0;top=0;left=0;bottom=0;right=0;collapsible=0;dropTarget=0;fillColor=none;points=[[0,0.5],[1,0.5]];portConstraint=eastwest;" vertex="1" parent="k99aoyYJCD8kDP9gguMM-338">
          <mxGeometry y="84" width="200" height="18" as="geometry" />
        </mxCell>
        <mxCell id="k99aoyYJCD8kDP9gguMM-348" value="" style="shape=partialRectangle;html=1;whiteSpace=wrap;connectable=1;fillColor=#D4E1F5;top=1;left=1;bottom=1;right=1;overflow=hidden;strokeColor=#003366;strokeWidth=1;allowArrows=1;snapToPoint=0;align=left;fontColor=#003366;spacingLeft=5;fontSize=10;spacing=0;" vertex="1" parent="k99aoyYJCD8kDP9gguMM-347">
          <mxGeometry width="40" height="18" as="geometry">
            <mxRectangle width="40" height="18" as="alternateBounds" />
          </mxGeometry>
        </mxCell>
        <mxCell id="k99aoyYJCD8kDP9gguMM-349" value="message" style="shape=partialRectangle;html=1;whiteSpace=wrap;connectable=1;fillColor=#D4E1F5;top=1;left=1;bottom=1;right=1;overflow=hidden;strokeColor=#003366;strokeWidth=1;allowArrows=1;snapToPoint=0;align=left;fontColor=#003366;spacingLeft=5;fontSize=10;spacing=0;" vertex="1" parent="k99aoyYJCD8kDP9gguMM-347">
          <mxGeometry x="40" width="100" height="18" as="geometry">
            <mxRectangle width="100" height="18" as="alternateBounds" />
          </mxGeometry>
        </mxCell>
        <mxCell id="k99aoyYJCD8kDP9gguMM-350" value="string" style="shape=partialRectangle;html=1;whiteSpace=wrap;connectable=1;fillColor=#D4E1F5;top=1;left=1;bottom=1;right=1;overflow=hidden;strokeColor=#003366;strokeWidth=1;allowArrows=1;snapToPoint=0;align=left;fontColor=#003366;spacingLeft=5;fontSize=10;spacing=0;" vertex="1" parent="k99aoyYJCD8kDP9gguMM-347">
          <mxGeometry x="140" width="60" height="18" as="geometry">
            <mxRectangle width="60" height="18" as="alternateBounds" />
          </mxGeometry>
        </mxCell>
        <mxCell id="k99aoyYJCD8kDP9gguMM-351" value="" style="shape=tableRow;horizontal=0;startSize=0;swimlaneHead=0;swimlaneBody=0;top=0;left=0;bottom=0;right=0;collapsible=0;dropTarget=0;fillColor=none;points=[[0,0.5],[1,0.5]];portConstraint=eastwest;" vertex="1" parent="k99aoyYJCD8kDP9gguMM-338">
          <mxGeometry y="102" width="200" height="18" as="geometry" />
        </mxCell>
        <mxCell id="k99aoyYJCD8kDP9gguMM-352" value="" style="shape=partialRectangle;html=1;whiteSpace=wrap;connectable=1;fillColor=#D4E1F5;top=1;left=1;bottom=1;right=1;overflow=hidden;strokeColor=#003366;strokeWidth=1;allowArrows=1;snapToPoint=0;align=left;fontColor=#003366;spacingLeft=5;fontSize=10;spacing=0;" vertex="1" parent="k99aoyYJCD8kDP9gguMM-351">
          <mxGeometry width="40" height="18" as="geometry">
            <mxRectangle width="40" height="18" as="alternateBounds" />
          </mxGeometry>
        </mxCell>
        <mxCell id="k99aoyYJCD8kDP9gguMM-353" value="recurrent" style="shape=partialRectangle;html=1;whiteSpace=wrap;connectable=1;fillColor=#D4E1F5;top=1;left=1;bottom=1;right=1;overflow=hidden;strokeColor=#003366;strokeWidth=1;allowArrows=1;snapToPoint=0;align=left;fontColor=#003366;spacingLeft=5;fontSize=10;spacing=0;" vertex="1" parent="k99aoyYJCD8kDP9gguMM-351">
          <mxGeometry x="40" width="100" height="18" as="geometry">
            <mxRectangle width="100" height="18" as="alternateBounds" />
          </mxGeometry>
        </mxCell>
        <mxCell id="k99aoyYJCD8kDP9gguMM-354" value="boolean" style="shape=partialRectangle;html=1;whiteSpace=wrap;connectable=1;fillColor=#D4E1F5;top=1;left=1;bottom=1;right=1;overflow=hidden;strokeColor=#003366;strokeWidth=1;allowArrows=1;snapToPoint=0;align=left;fontColor=#003366;spacingLeft=5;fontSize=10;spacing=0;" vertex="1" parent="k99aoyYJCD8kDP9gguMM-351">
          <mxGeometry x="140" width="60" height="18" as="geometry">
            <mxRectangle width="60" height="18" as="alternateBounds" />
          </mxGeometry>
        </mxCell>
        <mxCell id="k99aoyYJCD8kDP9gguMM-355" value="" style="shape=tableRow;horizontal=0;startSize=0;swimlaneHead=0;swimlaneBody=0;top=0;left=0;bottom=0;right=0;collapsible=0;dropTarget=0;fillColor=none;points=[[0,0.5],[1,0.5]];portConstraint=eastwest;" vertex="1" parent="k99aoyYJCD8kDP9gguMM-338">
          <mxGeometry y="120" width="200" height="18" as="geometry" />
        </mxCell>
        <mxCell id="k99aoyYJCD8kDP9gguMM-356" value="" style="shape=partialRectangle;html=1;whiteSpace=wrap;connectable=1;fillColor=#D4E1F5;top=1;left=1;bottom=1;right=1;overflow=hidden;strokeColor=#003366;strokeWidth=1;allowArrows=1;snapToPoint=0;align=left;fontColor=#003366;spacingLeft=5;fontSize=10;spacing=0;" vertex="1" parent="k99aoyYJCD8kDP9gguMM-355">
          <mxGeometry width="40" height="18" as="geometry">
            <mxRectangle width="40" height="18" as="alternateBounds" />
          </mxGeometry>
        </mxCell>
        <mxCell id="k99aoyYJCD8kDP9gguMM-357" value="notificationDate" style="shape=partialRectangle;html=1;whiteSpace=wrap;connectable=1;fillColor=#D4E1F5;top=1;left=1;bottom=1;right=1;overflow=hidden;strokeColor=#003366;strokeWidth=1;allowArrows=1;snapToPoint=0;align=left;fontColor=#003366;spacingLeft=5;fontSize=10;spacing=0;" vertex="1" parent="k99aoyYJCD8kDP9gguMM-355">
          <mxGeometry x="40" width="100" height="18" as="geometry">
            <mxRectangle width="100" height="18" as="alternateBounds" />
          </mxGeometry>
        </mxCell>
        <mxCell id="k99aoyYJCD8kDP9gguMM-358" value="date" style="shape=partialRectangle;html=1;whiteSpace=wrap;connectable=1;fillColor=#D4E1F5;top=1;left=1;bottom=1;right=1;overflow=hidden;strokeColor=#003366;strokeWidth=1;allowArrows=1;snapToPoint=0;align=left;fontColor=#003366;spacingLeft=5;fontSize=10;spacing=0;" vertex="1" parent="k99aoyYJCD8kDP9gguMM-355">
          <mxGeometry x="140" width="60" height="18" as="geometry">
            <mxRectangle width="60" height="18" as="alternateBounds" />
          </mxGeometry>
        </mxCell>
        <mxCell id="k99aoyYJCD8kDP9gguMM-359" value="" style="shape=tableRow;horizontal=0;startSize=0;swimlaneHead=0;swimlaneBody=0;top=0;left=0;bottom=0;right=0;collapsible=0;dropTarget=0;fillColor=none;points=[[0,0.5],[1,0.5]];portConstraint=eastwest;" vertex="1" parent="k99aoyYJCD8kDP9gguMM-338">
          <mxGeometry y="138" width="200" height="18" as="geometry" />
        </mxCell>
        <mxCell id="k99aoyYJCD8kDP9gguMM-360" value="" style="shape=partialRectangle;html=1;whiteSpace=wrap;connectable=1;fillColor=#D4E1F5;top=1;left=1;bottom=1;right=1;overflow=hidden;strokeColor=#003366;strokeWidth=1;allowArrows=1;snapToPoint=0;align=left;fontColor=#003366;spacingLeft=5;fontSize=10;spacing=0;" vertex="1" parent="k99aoyYJCD8kDP9gguMM-359">
          <mxGeometry width="40" height="18" as="geometry">
            <mxRectangle width="40" height="18" as="alternateBounds" />
          </mxGeometry>
        </mxCell>
        <mxCell id="k99aoyYJCD8kDP9gguMM-361" value="link" style="shape=partialRectangle;html=1;whiteSpace=wrap;connectable=1;fillColor=#D4E1F5;top=1;left=1;bottom=1;right=1;overflow=hidden;strokeColor=#003366;strokeWidth=1;allowArrows=1;snapToPoint=0;align=left;fontColor=#003366;spacingLeft=5;fontSize=10;spacing=0;" vertex="1" parent="k99aoyYJCD8kDP9gguMM-359">
          <mxGeometry x="40" width="100" height="18" as="geometry">
            <mxRectangle width="100" height="18" as="alternateBounds" />
          </mxGeometry>
        </mxCell>
        <mxCell id="k99aoyYJCD8kDP9gguMM-362" value="string" style="shape=partialRectangle;html=1;whiteSpace=wrap;connectable=1;fillColor=#D4E1F5;top=1;left=1;bottom=1;right=1;overflow=hidden;strokeColor=#003366;strokeWidth=1;allowArrows=1;snapToPoint=0;align=left;fontColor=#003366;spacingLeft=5;fontSize=10;spacing=0;" vertex="1" parent="k99aoyYJCD8kDP9gguMM-359">
          <mxGeometry x="140" width="60" height="18" as="geometry">
            <mxRectangle width="60" height="18" as="alternateBounds" />
          </mxGeometry>
        </mxCell>
        <mxCell id="k99aoyYJCD8kDP9gguMM-363" value="" style="shape=tableRow;horizontal=0;startSize=0;swimlaneHead=0;swimlaneBody=0;top=0;left=0;bottom=0;right=0;collapsible=0;dropTarget=0;fillColor=none;points=[[0,0.5],[1,0.5]];portConstraint=eastwest;" vertex="1" parent="k99aoyYJCD8kDP9gguMM-338">
          <mxGeometry y="156" width="200" height="18" as="geometry" />
        </mxCell>
        <mxCell id="k99aoyYJCD8kDP9gguMM-364" value="" style="shape=partialRectangle;html=1;whiteSpace=wrap;connectable=1;fillColor=#D4E1F5;top=1;left=1;bottom=1;right=1;overflow=hidden;strokeColor=#003366;strokeWidth=1;allowArrows=1;snapToPoint=0;align=left;fontColor=#003366;spacingLeft=5;fontSize=10;spacing=0;" vertex="1" parent="k99aoyYJCD8kDP9gguMM-363">
          <mxGeometry width="40" height="18" as="geometry">
            <mxRectangle width="40" height="18" as="alternateBounds" />
          </mxGeometry>
        </mxCell>
        <mxCell id="k99aoyYJCD8kDP9gguMM-365" value="photo" style="shape=partialRectangle;html=1;whiteSpace=wrap;connectable=1;fillColor=#D4E1F5;top=1;left=1;bottom=1;right=1;overflow=hidden;strokeColor=#003366;strokeWidth=1;allowArrows=1;snapToPoint=0;align=left;fontColor=#003366;spacingLeft=5;fontSize=10;spacing=0;" vertex="1" parent="k99aoyYJCD8kDP9gguMM-363">
          <mxGeometry x="40" width="100" height="18" as="geometry">
            <mxRectangle width="100" height="18" as="alternateBounds" />
          </mxGeometry>
        </mxCell>
        <mxCell id="k99aoyYJCD8kDP9gguMM-366" value="image" style="shape=partialRectangle;html=1;whiteSpace=wrap;connectable=1;fillColor=#D4E1F5;top=1;left=1;bottom=1;right=1;overflow=hidden;strokeColor=#003366;strokeWidth=1;allowArrows=1;snapToPoint=0;align=left;fontColor=#003366;spacingLeft=5;fontSize=10;spacing=0;" vertex="1" parent="k99aoyYJCD8kDP9gguMM-363">
          <mxGeometry x="140" width="60" height="18" as="geometry">
            <mxRectangle width="60" height="18" as="alternateBounds" />
          </mxGeometry>
        </mxCell>
        <mxCell id="k99aoyYJCD8kDP9gguMM-431" value="" style="edgeStyle=orthogonalEdgeStyle;rounded=0;orthogonalLoop=1;jettySize=auto;html=1;fontSize=10;fontColor=#003366;startArrow=ERone;startFill=0;endArrow=ERmany;endFill=0;" edge="1" parent="1" source="k99aoyYJCD8kDP9gguMM-368" target="k99aoyYJCD8kDP9gguMM-414">
          <mxGeometry relative="1" as="geometry" />
        </mxCell>
        <mxCell id="k99aoyYJCD8kDP9gguMM-449" value="" style="edgeStyle=orthogonalEdgeStyle;rounded=0;orthogonalLoop=1;jettySize=auto;html=1;fontSize=10;fontColor=#003366;startArrow=ERone;startFill=0;endArrow=ERmany;endFill=0;" edge="1" parent="1" source="k99aoyYJCD8kDP9gguMM-368" target="k99aoyYJCD8kDP9gguMM-140">
          <mxGeometry relative="1" as="geometry">
            <mxPoint x="420" y="218.91999999999996" as="targetPoint" />
            <Array as="points">
              <mxPoint x="420" y="210" />
            </Array>
          </mxGeometry>
        </mxCell>
        <mxCell id="k99aoyYJCD8kDP9gguMM-368" value="Class" style="shape=table;startSize=30;container=1;collapsible=0;childLayout=tableLayout;fontStyle=5;align=center;fillColor=#D4E1F5;strokeColor=#003366;fontColor=#003366;verticalAlign=top;swimlaneLine=1;sketch=0;perimeterSpacing=1;" vertex="1" parent="1">
          <mxGeometry x="320" y="329" width="200" height="120.16000000000008" as="geometry" />
        </mxCell>
        <mxCell id="k99aoyYJCD8kDP9gguMM-369" value="" style="shape=tableRow;horizontal=0;startSize=0;swimlaneHead=0;swimlaneBody=0;top=0;left=0;bottom=0;right=0;collapsible=0;dropTarget=0;fillColor=none;points=[[0,0.5],[1,0.5]];portConstraint=eastwest;" vertex="1" parent="k99aoyYJCD8kDP9gguMM-368">
          <mxGeometry y="30" width="200" height="18" as="geometry" />
        </mxCell>
        <mxCell id="k99aoyYJCD8kDP9gguMM-370" value="PK" style="shape=partialRectangle;html=1;whiteSpace=wrap;connectable=0;fillColor=#D4E1F5;top=1;left=1;bottom=1;right=1;overflow=hidden;strokeColor=#003366;strokeWidth=1;align=left;fontColor=#003366;spacingLeft=5;fontSize=10;spacing=0;allowArrows=1;expand=1;resizeHeight=0;resizeWidth=0;" vertex="1" parent="k99aoyYJCD8kDP9gguMM-369">
          <mxGeometry width="40" height="18" as="geometry">
            <mxRectangle width="40" height="18" as="alternateBounds" />
          </mxGeometry>
        </mxCell>
        <mxCell id="k99aoyYJCD8kDP9gguMM-371" value="id" style="shape=partialRectangle;html=1;whiteSpace=wrap;connectable=0;fillColor=#D4E1F5;top=1;left=1;bottom=1;right=1;overflow=hidden;strokeColor=#003366;strokeWidth=1;align=left;fontColor=#003366;spacingLeft=5;fontSize=10;spacing=0;allowArrows=1;expand=1;resizeHeight=0;resizeWidth=0;" vertex="1" parent="k99aoyYJCD8kDP9gguMM-369">
          <mxGeometry x="40" width="100" height="18" as="geometry">
            <mxRectangle width="100" height="18" as="alternateBounds" />
          </mxGeometry>
        </mxCell>
        <mxCell id="k99aoyYJCD8kDP9gguMM-372" value="number" style="shape=partialRectangle;html=1;whiteSpace=wrap;connectable=0;fillColor=#D4E1F5;top=1;left=1;bottom=1;right=1;overflow=hidden;strokeColor=#003366;strokeWidth=1;align=left;fontColor=#003366;spacingLeft=5;fontSize=10;spacing=0;allowArrows=1;expand=1;resizeHeight=0;resizeWidth=0;" vertex="1" parent="k99aoyYJCD8kDP9gguMM-369">
          <mxGeometry x="140" width="60" height="18" as="geometry">
            <mxRectangle width="60" height="18" as="alternateBounds" />
          </mxGeometry>
        </mxCell>
        <mxCell id="k99aoyYJCD8kDP9gguMM-432" value="" style="shape=tableRow;horizontal=0;startSize=0;swimlaneHead=0;swimlaneBody=0;top=0;left=0;bottom=0;right=0;collapsible=0;dropTarget=0;fillColor=none;points=[[0,0.5],[1,0.5]];portConstraint=eastwest;" vertex="1" parent="k99aoyYJCD8kDP9gguMM-368">
          <mxGeometry y="48" width="200" height="18" as="geometry" />
        </mxCell>
        <mxCell id="k99aoyYJCD8kDP9gguMM-433" value="FK" style="shape=partialRectangle;html=1;whiteSpace=wrap;connectable=1;fillColor=#D4E1F5;top=1;left=1;bottom=1;right=1;overflow=hidden;strokeColor=#003366;strokeWidth=1;allowArrows=1;snapToPoint=0;align=left;fontColor=#003366;spacingLeft=5;fontSize=10;spacing=0;" vertex="1" parent="k99aoyYJCD8kDP9gguMM-432">
          <mxGeometry width="40" height="18" as="geometry">
            <mxRectangle width="40" height="18" as="alternateBounds" />
          </mxGeometry>
        </mxCell>
        <mxCell id="k99aoyYJCD8kDP9gguMM-434" value="idBook" style="shape=partialRectangle;html=1;whiteSpace=wrap;connectable=1;fillColor=#D4E1F5;top=1;left=1;bottom=1;right=1;overflow=hidden;strokeColor=#003366;strokeWidth=1;allowArrows=1;snapToPoint=0;align=left;fontColor=#003366;spacingLeft=5;fontSize=10;spacing=0;" vertex="1" parent="k99aoyYJCD8kDP9gguMM-432">
          <mxGeometry x="40" width="100" height="18" as="geometry">
            <mxRectangle width="100" height="18" as="alternateBounds" />
          </mxGeometry>
        </mxCell>
        <mxCell id="k99aoyYJCD8kDP9gguMM-435" value="number" style="shape=partialRectangle;html=1;whiteSpace=wrap;connectable=1;fillColor=#D4E1F5;top=1;left=1;bottom=1;right=1;overflow=hidden;strokeColor=#003366;strokeWidth=1;allowArrows=1;snapToPoint=0;align=left;fontColor=#003366;spacingLeft=5;fontSize=10;spacing=0;" vertex="1" parent="k99aoyYJCD8kDP9gguMM-432">
          <mxGeometry x="140" width="60" height="18" as="geometry">
            <mxRectangle width="60" height="18" as="alternateBounds" />
          </mxGeometry>
        </mxCell>
        <mxCell id="k99aoyYJCD8kDP9gguMM-377" value="" style="shape=tableRow;horizontal=0;startSize=0;swimlaneHead=0;swimlaneBody=0;top=0;left=0;bottom=0;right=0;collapsible=0;dropTarget=0;fillColor=none;points=[[0,0.5],[1,0.5]];portConstraint=eastwest;" vertex="1" parent="k99aoyYJCD8kDP9gguMM-368">
          <mxGeometry y="66" width="200" height="18" as="geometry" />
        </mxCell>
        <mxCell id="k99aoyYJCD8kDP9gguMM-378" value="" style="shape=partialRectangle;html=1;whiteSpace=wrap;connectable=1;fillColor=#D4E1F5;top=1;left=1;bottom=1;right=1;overflow=hidden;strokeColor=#003366;strokeWidth=1;allowArrows=1;snapToPoint=0;align=left;fontColor=#003366;spacingLeft=5;fontSize=10;spacing=0;" vertex="1" parent="k99aoyYJCD8kDP9gguMM-377">
          <mxGeometry width="40" height="18" as="geometry">
            <mxRectangle width="40" height="18" as="alternateBounds" />
          </mxGeometry>
        </mxCell>
        <mxCell id="k99aoyYJCD8kDP9gguMM-379" value="beginningDate" style="shape=partialRectangle;html=1;whiteSpace=wrap;connectable=1;fillColor=#D4E1F5;top=1;left=1;bottom=1;right=1;overflow=hidden;strokeColor=#003366;strokeWidth=1;allowArrows=1;snapToPoint=0;align=left;fontColor=#003366;spacingLeft=5;fontSize=10;spacing=0;" vertex="1" parent="k99aoyYJCD8kDP9gguMM-377">
          <mxGeometry x="40" width="100" height="18" as="geometry">
            <mxRectangle width="100" height="18" as="alternateBounds" />
          </mxGeometry>
        </mxCell>
        <mxCell id="k99aoyYJCD8kDP9gguMM-380" value="date" style="shape=partialRectangle;html=1;whiteSpace=wrap;connectable=1;fillColor=#D4E1F5;top=1;left=1;bottom=1;right=1;overflow=hidden;strokeColor=#003366;strokeWidth=1;allowArrows=1;snapToPoint=0;align=left;fontColor=#003366;spacingLeft=5;fontSize=10;spacing=0;" vertex="1" parent="k99aoyYJCD8kDP9gguMM-377">
          <mxGeometry x="140" width="60" height="18" as="geometry">
            <mxRectangle width="60" height="18" as="alternateBounds" />
          </mxGeometry>
        </mxCell>
        <mxCell id="k99aoyYJCD8kDP9gguMM-381" value="" style="shape=tableRow;horizontal=0;startSize=0;swimlaneHead=0;swimlaneBody=0;top=0;left=0;bottom=0;right=0;collapsible=0;dropTarget=0;fillColor=none;points=[[0,0.5],[1,0.5]];portConstraint=eastwest;" vertex="1" parent="k99aoyYJCD8kDP9gguMM-368">
          <mxGeometry y="84" width="200" height="18" as="geometry" />
        </mxCell>
        <mxCell id="k99aoyYJCD8kDP9gguMM-382" value="" style="shape=partialRectangle;html=1;whiteSpace=wrap;connectable=1;fillColor=#D4E1F5;top=1;left=1;bottom=1;right=1;overflow=hidden;strokeColor=#003366;strokeWidth=1;allowArrows=1;snapToPoint=0;align=left;fontColor=#003366;spacingLeft=5;fontSize=10;spacing=0;" vertex="1" parent="k99aoyYJCD8kDP9gguMM-381">
          <mxGeometry width="40" height="18" as="geometry">
            <mxRectangle width="40" height="18" as="alternateBounds" />
          </mxGeometry>
        </mxCell>
        <mxCell id="k99aoyYJCD8kDP9gguMM-383" value="semester" style="shape=partialRectangle;html=1;whiteSpace=wrap;connectable=1;fillColor=#D4E1F5;top=1;left=1;bottom=1;right=1;overflow=hidden;strokeColor=#003366;strokeWidth=1;allowArrows=1;snapToPoint=0;align=left;fontColor=#003366;spacingLeft=5;fontSize=10;spacing=0;" vertex="1" parent="k99aoyYJCD8kDP9gguMM-381">
          <mxGeometry x="40" width="100" height="18" as="geometry">
            <mxRectangle width="100" height="18" as="alternateBounds" />
          </mxGeometry>
        </mxCell>
        <mxCell id="k99aoyYJCD8kDP9gguMM-384" value="number" style="shape=partialRectangle;html=1;whiteSpace=wrap;connectable=1;fillColor=#D4E1F5;top=1;left=1;bottom=1;right=1;overflow=hidden;strokeColor=#003366;strokeWidth=1;allowArrows=1;snapToPoint=0;align=left;fontColor=#003366;spacingLeft=5;fontSize=10;spacing=0;" vertex="1" parent="k99aoyYJCD8kDP9gguMM-381">
          <mxGeometry x="140" width="60" height="18" as="geometry">
            <mxRectangle width="60" height="18" as="alternateBounds" />
          </mxGeometry>
        </mxCell>
        <mxCell id="k99aoyYJCD8kDP9gguMM-385" value="" style="shape=tableRow;horizontal=0;startSize=0;swimlaneHead=0;swimlaneBody=0;top=0;left=0;bottom=0;right=0;collapsible=0;dropTarget=0;fillColor=none;points=[[0,0.5],[1,0.5]];portConstraint=eastwest;" vertex="1" parent="k99aoyYJCD8kDP9gguMM-368">
          <mxGeometry y="102" width="200" height="18" as="geometry" />
        </mxCell>
        <mxCell id="k99aoyYJCD8kDP9gguMM-386" value="" style="shape=partialRectangle;html=1;whiteSpace=wrap;connectable=1;fillColor=#D4E1F5;top=1;left=1;bottom=1;right=1;overflow=hidden;strokeColor=#003366;strokeWidth=1;allowArrows=1;snapToPoint=0;align=left;fontColor=#003366;spacingLeft=5;fontSize=10;spacing=0;" vertex="1" parent="k99aoyYJCD8kDP9gguMM-385">
          <mxGeometry width="40" height="18" as="geometry">
            <mxRectangle width="40" height="18" as="alternateBounds" />
          </mxGeometry>
        </mxCell>
        <mxCell id="k99aoyYJCD8kDP9gguMM-387" value="numberStudents" style="shape=partialRectangle;html=1;whiteSpace=wrap;connectable=1;fillColor=#D4E1F5;top=1;left=1;bottom=1;right=1;overflow=hidden;strokeColor=#003366;strokeWidth=1;allowArrows=1;snapToPoint=0;align=left;fontColor=#003366;spacingLeft=5;fontSize=10;spacing=0;" vertex="1" parent="k99aoyYJCD8kDP9gguMM-385">
          <mxGeometry x="40" width="100" height="18" as="geometry">
            <mxRectangle width="100" height="18" as="alternateBounds" />
          </mxGeometry>
        </mxCell>
        <mxCell id="k99aoyYJCD8kDP9gguMM-388" value="number" style="shape=partialRectangle;html=1;whiteSpace=wrap;connectable=1;fillColor=#D4E1F5;top=1;left=1;bottom=1;right=1;overflow=hidden;strokeColor=#003366;strokeWidth=1;allowArrows=1;snapToPoint=0;align=left;fontColor=#003366;spacingLeft=5;fontSize=10;spacing=0;" vertex="1" parent="k99aoyYJCD8kDP9gguMM-385">
          <mxGeometry x="140" width="60" height="18" as="geometry">
            <mxRectangle width="60" height="18" as="alternateBounds" />
          </mxGeometry>
        </mxCell>
        <mxCell id="k99aoyYJCD8kDP9gguMM-413" value="" style="edgeStyle=orthogonalEdgeStyle;rounded=0;orthogonalLoop=1;jettySize=auto;html=1;fontSize=10;fontColor=#003366;startArrow=ERone;startFill=0;endArrow=ERmany;endFill=0;" edge="1" parent="1" source="k99aoyYJCD8kDP9gguMM-368" target="k99aoyYJCD8kDP9gguMM-285">
          <mxGeometry relative="1" as="geometry">
            <mxPoint x="360" y="340" as="sourcePoint" />
            <Array as="points">
              <mxPoint x="410" y="395" />
              <mxPoint x="410" y="395" />
            </Array>
          </mxGeometry>
        </mxCell>
        <mxCell id="k99aoyYJCD8kDP9gguMM-414" value="Book" style="shape=table;startSize=30;container=1;collapsible=0;childLayout=tableLayout;fontStyle=5;align=center;fillColor=#D4E1F5;strokeColor=#003366;fontColor=#003366;verticalAlign=top;swimlaneLine=1;sketch=0;perimeterSpacing=1;" vertex="1" parent="1">
          <mxGeometry x="320" y="520" width="200" height="102.16000000000008" as="geometry" />
        </mxCell>
        <mxCell id="k99aoyYJCD8kDP9gguMM-415" value="" style="shape=tableRow;horizontal=0;startSize=0;swimlaneHead=0;swimlaneBody=0;top=0;left=0;bottom=0;right=0;collapsible=0;dropTarget=0;fillColor=none;points=[[0,0.5],[1,0.5]];portConstraint=eastwest;" vertex="1" parent="k99aoyYJCD8kDP9gguMM-414">
          <mxGeometry y="30" width="200" height="18" as="geometry" />
        </mxCell>
        <mxCell id="k99aoyYJCD8kDP9gguMM-416" value="PK" style="shape=partialRectangle;html=1;whiteSpace=wrap;connectable=0;fillColor=#D4E1F5;top=1;left=1;bottom=1;right=1;overflow=hidden;strokeColor=#003366;strokeWidth=1;align=left;fontColor=#003366;spacingLeft=5;fontSize=10;spacing=0;allowArrows=1;expand=1;resizeHeight=0;resizeWidth=0;" vertex="1" parent="k99aoyYJCD8kDP9gguMM-415">
          <mxGeometry width="40" height="18" as="geometry">
            <mxRectangle width="40" height="18" as="alternateBounds" />
          </mxGeometry>
        </mxCell>
        <mxCell id="k99aoyYJCD8kDP9gguMM-417" value="id" style="shape=partialRectangle;html=1;whiteSpace=wrap;connectable=0;fillColor=#D4E1F5;top=1;left=1;bottom=1;right=1;overflow=hidden;strokeColor=#003366;strokeWidth=1;align=left;fontColor=#003366;spacingLeft=5;fontSize=10;spacing=0;allowArrows=1;expand=1;resizeHeight=0;resizeWidth=0;" vertex="1" parent="k99aoyYJCD8kDP9gguMM-415">
          <mxGeometry x="40" width="100" height="18" as="geometry">
            <mxRectangle width="100" height="18" as="alternateBounds" />
          </mxGeometry>
        </mxCell>
        <mxCell id="k99aoyYJCD8kDP9gguMM-418" value="number" style="shape=partialRectangle;html=1;whiteSpace=wrap;connectable=0;fillColor=#D4E1F5;top=1;left=1;bottom=1;right=1;overflow=hidden;strokeColor=#003366;strokeWidth=1;align=left;fontColor=#003366;spacingLeft=5;fontSize=10;spacing=0;allowArrows=1;expand=1;resizeHeight=0;resizeWidth=0;" vertex="1" parent="k99aoyYJCD8kDP9gguMM-415">
          <mxGeometry x="140" width="60" height="18" as="geometry">
            <mxRectangle width="60" height="18" as="alternateBounds" />
          </mxGeometry>
        </mxCell>
        <mxCell id="k99aoyYJCD8kDP9gguMM-419" value="" style="shape=tableRow;horizontal=0;startSize=0;swimlaneHead=0;swimlaneBody=0;top=0;left=0;bottom=0;right=0;collapsible=0;dropTarget=0;fillColor=none;points=[[0,0.5],[1,0.5]];portConstraint=eastwest;" vertex="1" parent="k99aoyYJCD8kDP9gguMM-414">
          <mxGeometry y="48" width="200" height="18" as="geometry" />
        </mxCell>
        <mxCell id="k99aoyYJCD8kDP9gguMM-420" value="" style="shape=partialRectangle;html=1;whiteSpace=wrap;connectable=1;fillColor=#D4E1F5;top=1;left=1;bottom=1;right=1;overflow=hidden;strokeColor=#003366;strokeWidth=1;allowArrows=1;snapToPoint=0;align=left;fontColor=#003366;spacingLeft=5;fontSize=10;spacing=0;" vertex="1" parent="k99aoyYJCD8kDP9gguMM-419">
          <mxGeometry width="40" height="18" as="geometry">
            <mxRectangle width="40" height="18" as="alternateBounds" />
          </mxGeometry>
        </mxCell>
        <mxCell id="k99aoyYJCD8kDP9gguMM-421" value="bookName" style="shape=partialRectangle;html=1;whiteSpace=wrap;connectable=1;fillColor=#D4E1F5;top=1;left=1;bottom=1;right=1;overflow=hidden;strokeColor=#003366;strokeWidth=1;allowArrows=1;snapToPoint=0;align=left;fontColor=#003366;spacingLeft=5;fontSize=10;spacing=0;" vertex="1" parent="k99aoyYJCD8kDP9gguMM-419">
          <mxGeometry x="40" width="100" height="18" as="geometry">
            <mxRectangle width="100" height="18" as="alternateBounds" />
          </mxGeometry>
        </mxCell>
        <mxCell id="k99aoyYJCD8kDP9gguMM-422" value="string" style="shape=partialRectangle;html=1;whiteSpace=wrap;connectable=1;fillColor=#D4E1F5;top=1;left=1;bottom=1;right=1;overflow=hidden;strokeColor=#003366;strokeWidth=1;allowArrows=1;snapToPoint=0;align=left;fontColor=#003366;spacingLeft=5;fontSize=10;spacing=0;" vertex="1" parent="k99aoyYJCD8kDP9gguMM-419">
          <mxGeometry x="140" width="60" height="18" as="geometry">
            <mxRectangle width="60" height="18" as="alternateBounds" />
          </mxGeometry>
        </mxCell>
        <mxCell id="k99aoyYJCD8kDP9gguMM-423" value="" style="shape=tableRow;horizontal=0;startSize=0;swimlaneHead=0;swimlaneBody=0;top=0;left=0;bottom=0;right=0;collapsible=0;dropTarget=0;fillColor=none;points=[[0,0.5],[1,0.5]];portConstraint=eastwest;" vertex="1" parent="k99aoyYJCD8kDP9gguMM-414">
          <mxGeometry y="66" width="200" height="18" as="geometry" />
        </mxCell>
        <mxCell id="k99aoyYJCD8kDP9gguMM-424" value="" style="shape=partialRectangle;html=1;whiteSpace=wrap;connectable=1;fillColor=#D4E1F5;top=1;left=1;bottom=1;right=1;overflow=hidden;strokeColor=#003366;strokeWidth=1;allowArrows=1;snapToPoint=0;align=left;fontColor=#003366;spacingLeft=5;fontSize=10;spacing=0;" vertex="1" parent="k99aoyYJCD8kDP9gguMM-423">
          <mxGeometry width="40" height="18" as="geometry">
            <mxRectangle width="40" height="18" as="alternateBounds" />
          </mxGeometry>
        </mxCell>
        <mxCell id="k99aoyYJCD8kDP9gguMM-425" value="actualChapter" style="shape=partialRectangle;html=1;whiteSpace=wrap;connectable=1;fillColor=#D4E1F5;top=1;left=1;bottom=1;right=1;overflow=hidden;strokeColor=#003366;strokeWidth=1;allowArrows=1;snapToPoint=0;align=left;fontColor=#003366;spacingLeft=5;fontSize=10;spacing=0;" vertex="1" parent="k99aoyYJCD8kDP9gguMM-423">
          <mxGeometry x="40" width="100" height="18" as="geometry">
            <mxRectangle width="100" height="18" as="alternateBounds" />
          </mxGeometry>
        </mxCell>
        <mxCell id="k99aoyYJCD8kDP9gguMM-426" value="number" style="shape=partialRectangle;html=1;whiteSpace=wrap;connectable=1;fillColor=#D4E1F5;top=1;left=1;bottom=1;right=1;overflow=hidden;strokeColor=#003366;strokeWidth=1;allowArrows=1;snapToPoint=0;align=left;fontColor=#003366;spacingLeft=5;fontSize=10;spacing=0;" vertex="1" parent="k99aoyYJCD8kDP9gguMM-423">
          <mxGeometry x="140" width="60" height="18" as="geometry">
            <mxRectangle width="60" height="18" as="alternateBounds" />
          </mxGeometry>
        </mxCell>
        <mxCell id="k99aoyYJCD8kDP9gguMM-427" value="" style="shape=tableRow;horizontal=0;startSize=0;swimlaneHead=0;swimlaneBody=0;top=0;left=0;bottom=0;right=0;collapsible=0;dropTarget=0;fillColor=none;points=[[0,0.5],[1,0.5]];portConstraint=eastwest;" vertex="1" parent="k99aoyYJCD8kDP9gguMM-414">
          <mxGeometry y="84" width="200" height="18" as="geometry" />
        </mxCell>
        <mxCell id="k99aoyYJCD8kDP9gguMM-428" value="" style="shape=partialRectangle;html=1;whiteSpace=wrap;connectable=1;fillColor=#D4E1F5;top=1;left=1;bottom=1;right=1;overflow=hidden;strokeColor=#003366;strokeWidth=1;allowArrows=1;snapToPoint=0;align=left;fontColor=#003366;spacingLeft=5;fontSize=10;spacing=0;" vertex="1" parent="k99aoyYJCD8kDP9gguMM-427">
          <mxGeometry width="40" height="18" as="geometry">
            <mxRectangle width="40" height="18" as="alternateBounds" />
          </mxGeometry>
        </mxCell>
        <mxCell id="k99aoyYJCD8kDP9gguMM-429" value="synopsis" style="shape=partialRectangle;html=1;whiteSpace=wrap;connectable=1;fillColor=#D4E1F5;top=1;left=1;bottom=1;right=1;overflow=hidden;strokeColor=#003366;strokeWidth=1;allowArrows=1;snapToPoint=0;align=left;fontColor=#003366;spacingLeft=5;fontSize=10;spacing=0;" vertex="1" parent="k99aoyYJCD8kDP9gguMM-427">
          <mxGeometry x="40" width="100" height="18" as="geometry">
            <mxRectangle width="100" height="18" as="alternateBounds" />
          </mxGeometry>
        </mxCell>
        <mxCell id="k99aoyYJCD8kDP9gguMM-430" value="string" style="shape=partialRectangle;html=1;whiteSpace=wrap;connectable=1;fillColor=#D4E1F5;top=1;left=1;bottom=1;right=1;overflow=hidden;strokeColor=#003366;strokeWidth=1;allowArrows=1;snapToPoint=0;align=left;fontColor=#003366;spacingLeft=5;fontSize=10;spacing=0;" vertex="1" parent="k99aoyYJCD8kDP9gguMM-427">
          <mxGeometry x="140" width="60" height="18" as="geometry">
            <mxRectangle width="60" height="18" as="alternateBounds" />
          </mxGeometry>
        </mxCell>
        <mxCell id="k99aoyYJCD8kDP9gguMM-450" value="" style="edgeStyle=orthogonalEdgeStyle;rounded=0;orthogonalLoop=1;jettySize=auto;html=1;fontSize=10;fontColor=#003366;startArrow=ERmany;startFill=0;endArrow=ERmany;endFill=0;" edge="1" parent="1" source="k99aoyYJCD8kDP9gguMM-368" target="k99aoyYJCD8kDP9gguMM-338">
          <mxGeometry relative="1" as="geometry">
            <mxPoint x="290" y="458.1600000000001" as="sourcePoint" />
            <mxPoint x="290" y="526.9999999999999" as="targetPoint" />
            <Array as="points">
              <mxPoint x="290" y="410" />
              <mxPoint x="290" y="570" />
            </Array>
          </mxGeometry>
        </mxCell>
      </root>
    </mxGraphModel>
  </diagram>
</mxfile>
